name Walk10.mot
datacolumns 19
datarows 30
range 1.43000000 1.45900000
endheader

                time	   L_ground_force_vx	   L_ground_force_vy	   L_ground_force_vz	   L_ground_force_px	   L_ground_force_py	   L_ground_force_pz	   R_ground_force_vx	   R_ground_force_vy	   R_ground_force_vz	   R_ground_force_px	   R_ground_force_py	   R_ground_force_pz	   L_ground_torque_x	   L_ground_torque_y	   L_ground_torque_z	   R_ground_torque_x	   R_ground_torque_y	   R_ground_torque_z	
          1.43000000	         32.63424219	        507.28443251	         22.80721413	         -0.18648903	          0.00000000	          0.01127429	         -0.07393823	          0.32452935	          0.00549072	          0.00007247	          0.00000000	          0.00002149	          0.00000000	         -0.64821998	          0.00000000	          0.00000000	          0.01504133	          0.00000000	
          1.43100000	         33.38491419	        509.34827563	         22.86937588	         -0.18644057	          0.00000000	          0.01132357	         -0.07826033	          0.27377207	          0.00083184	          0.00001237	          0.00000000	         -0.00000569	          0.00000000	         -0.66139541	          0.00000000	          0.00000000	          0.01602312	          0.00000000	
          1.43200000	         34.13866962	        511.41113329	         22.92969994	         -0.18639078	          0.00000000	          0.01137324	         -0.08266086	          0.21716753	         -0.00426340	         -0.00005335	          0.00000000	         -0.00003538	          0.00000000	         -0.67441029	          0.00000000	          0.00000000	          0.01702998	          0.00000000	
          1.43300000	         34.89554489	        513.47219412	         22.98805533	         -0.18633966	          0.00000000	          0.01142331	         -0.08712893	          0.15440612	         -0.00981450	         -0.00012497	          0.00000000	         -0.00006769	          0.00000000	         -0.68726208	          0.00000000	          0.00000000	          0.01806006	          0.00000000	
          1.43400000	         35.65557115	        515.53063068	         23.04431079	         -0.18628722	          0.00000000	          0.01147382	         -0.09165236	          0.08517492	         -0.01584091	         -0.00020273	          0.00000000	         -0.00010271	          0.00000000	         -0.69994751	          0.00000000	          0.00000000	          0.01911127	          0.00000000	
          1.43500000	         36.41877367	        517.58559728	         23.09833653	         -0.18623348	          0.00000000	          0.01152475	         -0.09621762	          0.00915865	         -0.02236191	         -0.00028687	          0.00000000	         -0.00014057	          0.00000000	         -0.71246284	          0.00000000	          0.00000000	          0.02018125	          0.00000000	
          1.43600000	         37.18517210	        519.63622661	         23.15000559	         -0.18617844	          0.00000000	          0.01157614	         -0.10080972	         -0.07395927	         -0.02939651	         -0.00037765	          0.00000000	         -0.00018136	          0.00000000	         -0.72480424	          0.00000000	          0.00000000	          0.02126730	          0.00000000	
          1.43700000	         37.95478162	        521.68162596	         23.19919436	         -0.18612212	          0.00000000	          0.01162797	         -0.10541222	         -0.16449547	         -0.03696340	         -0.00047530	          0.00000000	         -0.00022520	          0.00000000	         -0.73696827	          0.00000000	          0.00000000	          0.02236644	          0.00000000	
          1.43800000	         38.72761479	        523.72087372	         23.24578226	         -0.18606455	          0.00000000	          0.01168028	         -0.11000706	         -0.26276541	         -0.04508079	         -0.00058006	          0.00000000	         -0.00027218	          0.00000000	         -0.74895209	          0.00000000	          0.00000000	          0.02347535	          0.00000000	
          1.43900000	         39.50368334	        525.75301664	         23.28965073	         -0.18600575	          0.00000000	          0.01173308	         -0.11457456	         -0.36908188	         -0.05376630	         -0.00069217	          0.00000000	         -0.00032240	          0.00000000	         -0.76075343	          0.00000000	          0.00000000	          0.02459035	          0.00000000	
          1.44000000	         40.28299920	        527.77706793	         23.33068202	         -0.18594572	          0.00000000	          0.01178636	         -0.11909331	         -0.48375354	         -0.06303687	         -0.00081183	          0.00000000	         -0.00037595	          0.00000000	         -0.77237036	          0.00000000	          0.00000000	          0.02570741	          0.00000000	
          1.44100000	         41.06557443	        529.79200630	         23.36875810	         -0.18588449	          0.00000000	          0.01184016	         -0.12354012	         -0.60708321	         -0.07290857	         -0.00093926	          0.00000000	         -0.00043293	          0.00000000	         -0.78380076	          0.00000000	          0.00000000	          0.02682210	          0.00000000	
          1.44200000	         41.85142030	        531.79677584	         23.40376008	         -0.18582208	          0.00000000	          0.01189448	         -0.12788994	         -0.73936610	         -0.08339649	         -0.00107465	          0.00000000	         -0.00049342	          0.00000000	         -0.79504206	          0.00000000	          0.00000000	          0.02792960	          0.00000000	
          1.44300000	         42.64054606	        533.79028664	         23.43556801	         -0.18575849	          0.00000000	          0.01194933	         -0.13211579	         -0.88088786	         -0.09451458	         -0.00121819	          0.00000000	         -0.00055749	          0.00000000	         -0.80609092	          0.00000000	          0.00000000	          0.02902467	          0.00000000	
          1.44400000	         43.43295770	        535.77141631	         23.46406129	         -0.18569374	          0.00000000	          0.01200474	         -0.13618871	         -1.03192256	         -0.10627549	         -0.00137003	          0.00000000	         -0.00062521	          0.00000000	         -0.81694324	          0.00000000	          0.00000000	          0.03010163	          0.00000000	
          1.44500000	         44.22865736	        537.73901221	         23.48911957	         -0.18562785	          0.00000000	          0.01206072	         -0.14007765	         -1.19273041	         -0.11869037	         -0.00153032	          0.00000000	         -0.00069664	          0.00000000	         -0.82759429	          0.00000000	          0.00000000	          0.03115435	          0.00000000	
          1.44600000	         45.02764339	        539.69189438	         23.51062415	         -0.18556083	          0.00000000	          0.01211730	         -0.14374947	         -1.36355547	         -0.13176872	         -0.00169919	          0.00000000	         -0.00077183	          0.00000000	         -0.83803908	          0.00000000	          0.00000000	          0.03217623	          0.00000000	
          1.44700000	         45.82991132	        541.62885833	         23.52845932	         -0.18549271	          0.00000000	          0.01217450	         -0.14716882	         -1.54462309	         -0.14551818	         -0.00187673	          0.00000000	         -0.00085082	          0.00000000	         -0.84827296	          0.00000000	          0.00000000	          0.03316018	          0.00000000	
          1.44800000	         46.63545530	        543.54867713	         23.54251301	         -0.18542349	          0.00000000	          0.01223236	         -0.15029811	         -1.73613727	         -0.15994434	         -0.00206302	          0.00000000	         -0.00093364	          0.00000000	         -0.85829216	          0.00000000	          0.00000000	          0.03409862	          0.00000000	
          1.44900000	         47.44426915	        545.45010262	         23.55267631	         -0.18535319	          0.00000000	          0.01229090	         -0.15309748	         -1.93827783	         -0.17505050	         -0.00225811	          0.00000000	         -0.00102030	          0.00000000	         -0.86809405	          0.00000000	          0.00000000	          0.03498344	          0.00000000	
          1.45000000	         48.25634633	        547.33186624	         23.55884229	         -0.18528183	          0.00000000	          0.01235014	         -0.15552471	         -2.15119740	         -0.19083745	         -0.00246199	          0.00000000	         -0.00111079	          0.00000000	         -0.87767695	          0.00000000	          0.00000000	          0.03580600	          0.00000000	
          1.45100000	         49.07167841	        549.19268018	         23.56090490	         -0.18520941	          0.00000000	          0.01241009	         -0.15753517	         -2.37501827	         -0.20730326	         -0.00267465	          0.00000000	         -0.00120511	          0.00000000	         -0.88703957	          0.00000000	          0.00000000	          0.03655712	          0.00000000	
          1.45200000	         49.89025275	        551.03123927	         23.55875860	         -0.18513594	          0.00000000	          0.01247078	         -0.15908186	         -2.60982910	         -0.22444301	         -0.00289603	          0.00000000	         -0.00130322	          0.00000000	         -0.89618029	          0.00000000	          0.00000000	          0.03722706	          0.00000000	
          1.45300000	         50.71204998	        552.84622346	         23.55229907	         -0.18506144	          0.00000000	          0.01253218	         -0.16011528	         -2.85568138	         -0.24224855	         -0.00312602	          0.00000000	         -0.00140506	          0.00000000	         -0.90509665	          0.00000000	          0.00000000	          0.03780551	          0.00000000	
          1.45400000	         51.53704204	        554.63630071	         23.54142476	         -0.18498590	          0.00000000	          0.01259430	         -0.16058346	         -3.11258578	         -0.26070821	         -0.00336447	          0.00000000	         -0.00151056	          0.00000000	         -0.91378516	          0.00000000	          0.00000000	          0.03828158	          0.00000000	
          1.45500000	         52.36519109	        556.40013008	         23.52603883	         -0.18490933	          0.00000000	          0.01265713	         -0.16043196	         -3.38050833	         -0.27980652	         -0.00361119	          0.00000000	         -0.00161963	          0.00000000	         -0.92224151	          0.00000000	          0.00000000	          0.03864379	          0.00000000	
          1.45600000	         53.19644957	        558.13636486	         23.50605099	         -0.18483173	          0.00000000	          0.01272064	         -0.15960381	         -3.65936641	         -0.29952398	         -0.00386591	          0.00000000	         -0.00173214	          0.00000000	         -0.93046107	          0.00000000	          0.00000000	          0.03888007	          0.00000000	
          1.45700000	         54.03076126	        559.84365551	         23.48137842	         -0.18475310	          0.00000000	          0.01278484	         -0.15803956	         -3.94902453	         -0.31983667	         -0.00412834	          0.00000000	         -0.00184796	          0.00000000	         -0.93843955	          0.00000000	          0.00000000	          0.03897772	          0.00000000	
          1.45800000	         54.86806279	        561.52065237	         23.45194544	         -0.18467344	          0.00000000	          0.01284970	         -0.15567725	         -4.24929003	         -0.34071602	         -0.00439811	          0.00000000	         -0.00196690	          0.00000000	         -0.94617348	          0.00000000	          0.00000000	          0.03892348	          0.00000000	
          1.45900000	         55.70828477	        563.16600760	         23.41768189	         -0.18459273	          0.00000000	          0.01291521	         -0.15245250	         -4.55990853	         -0.36212846	         -0.00467478	          0.00000000	         -0.00208878	          0.00000000	         -0.95366037	          0.00000000	          0.00000000	          0.03870345	          0.00000000	
